<?xml version="1.0" encoding="UTF-8" standalone="no"?>
<svg
   xmlns:dc="http://purl.org/dc/elements/1.1/"
   xmlns:cc="http://creativecommons.org/ns#"
   xmlns:rdf="http://www.w3.org/1999/02/22-rdf-syntax-ns#"
   xmlns:svg="http://www.w3.org/2000/svg"
   xmlns="http://www.w3.org/2000/svg"
   xmlns:sodipodi="http://sodipodi.sourceforge.net/DTD/sodipodi-0.dtd"
   xmlns:inkscape="http://www.inkscape.org/namespaces/inkscape"
   width="210mm"
   height="297mm"
   viewBox="0 0 210 297"
   version="1.1"
   id="svg8"
   inkscape:version="1.0.2 (e86c8708, 2021-01-15)"
   sodipodi:docname="dessin.svg">
  <defs
     id="defs2">
    <inkscape:perspective
       sodipodi:type="inkscape:persp3d"
       inkscape:vp_x="0 : 148.5 : 1"
       inkscape:vp_y="0 : 1000 : 0"
       inkscape:vp_z="210 : 148.5 : 1"
       inkscape:persp3d-origin="105 : 99 : 1"
       id="perspective36" />
  </defs>
  <sodipodi:namedview
     id="base"
     pagecolor="#ffffff"
     bordercolor="#666666"
     borderopacity="1.0"
     inkscape:pageopacity="0.0"
     inkscape:pageshadow="2"
     inkscape:zoom="0.35"
     inkscape:cx="400"
     inkscape:cy="560"
     inkscape:document-units="mm"
     inkscape:current-layer="layer1"
     inkscape:document-rotation="0"
     showgrid="false"
     inkscape:window-width="1434"
     inkscape:window-height="787"
     inkscape:window-x="0"
     inkscape:window-y="23"
     inkscape:window-maximized="0" />
  <metadata
     id="metadata5">
    <rdf:RDF>
      <cc:Work
         rdf:about="">
        <dc:format>image/svg+xml</dc:format>
        <dc:type
           rdf:resource="http://purl.org/dc/dcmitype/StillImage" />
        <dc:title></dc:title>
      </cc:Work>
    </rdf:RDF>
  </metadata>
  <g
     inkscape:label="Calque 1"
     inkscape:groupmode="layer"
     id="layer1">
    <path
       style="fill:none;stroke:#000000;stroke-width:0.264583px;stroke-linecap:butt;stroke-linejoin:miter;stroke-opacity:1"
       d="m 43.845239,86.934523 c 23.696458,0.07106 47.391483,-0.398587 71.059521,0.755952 5.79422,0.282646 11.59008,0.532998 17.3869,0.755951 1.0072,0.03874 2.3111,-0.712718 3.02381,0 0.70121,0.70121 0,9.829932 0,10.583334 0,15.37103 0,30.74206 0,46.1131 0,6.33503 1.50894,18.91067 0,24.94642 -0.16161,0.64648 -7.32491,-0.99619 -12.09523,-1.5119 -24.637777,-2.66354 -25.449648,-1.2146 -56.696432,-2.26786 -9.583205,-0.32303 -19.14194,-1.22147 -28.72619,-1.5119 -7.052318,-0.21371 -14.11111,0 -21.166666,0 -1.25992,0 -2.888863,0.8909 -3.779762,0 -0.356359,-0.35636 -0.225381,-1.06114 0,-1.51191 1.160222,-2.32044 2.356363,-4.63458 3.779762,-6.80357 3.873544,-5.90254 8.13562,-11.54175 12.095238,-17.3869 4.836354,-7.13938 6.222392,-13.41388 10.583334,-21.16667 2.57066,-4.57006 6.726486,-8.16131 9.071427,-12.85119 1.149416,-2.29883 -0.755952,-16.392411 -0.755952,-16.630954"
       id="path12" />
    <path
       sodipodi:type="spiral"
       style="fill:none;fill-rule:evenodd;stroke:#000000;stroke-width:0.264583"
       id="path32"
       sodipodi:cx="96.761909"
       sodipodi:cy="52.160713"
       sodipodi:expansion="1"
       sodipodi:revolution="3"
       sodipodi:radius="11.539112"
       sodipodi:argument="-18.297901"
       sodipodi:t0="0"
       d="m 96.761909,52.160713 c 0.49273,0.303218 -0.165636,0.813786 -0.503968,0.818949 -0.916858,0.01399 -1.322423,-1.068095 -1.133929,-1.826885 0.337173,-1.357298 1.926227,-1.885247 3.149802,-1.448909 1.795646,0.640342 2.461156,2.794701 1.763886,4.472717 -0.929346,2.236532 -3.666674,3.042432 -5.795631,2.078871 -2.679075,-1.212544 -3.626434,-4.540281 -2.393851,-7.118551 1.492824,-3.12263 5.414793,-4.212009 8.441472,-2.708831 3.56683,1.771442 4.79857,6.289869 3.02381,9.764384 -2.04903,4.011464 -7.165326,5.385787 -11.087303,3.338792 -4.4564,-2.325927 -5.973466,-8.041043 -3.653773,-12.410217 2.602346,-4.901554 8.916956,-6.56148 13.733136,-3.968753 5.34687,2.878418 7.14974,9.793014 4.28373,15.05605" />
    <path
       sodipodi:type="star"
       style="fill:#008080;stroke-width:0.264583"
       id="path34"
       sodipodi:sides="5"
       sodipodi:cx="46.869045"
       sodipodi:cy="61.232143"
       sodipodi:r1="162.81081"
       sodipodi:r2="81.405396"
       sodipodi:arg1="0.24385254"
       sodipodi:arg2="0.87217107"
       inkscape:flatsided="false"
       inkscape:rounded="0"
       inkscape:randomized="0"
       d="M 204.8631,100.54167 99.226197,123.56646 58.306312,223.64073 3.7648362,130.28912 -104.05639,122.29664 -32.127972,41.577383 -57.845267,-63.436503 41.150412,-19.97214 133.07747,-76.881816 122.33175,30.699897 Z"
       inkscape:transform-center-x="-3.5343092"
       inkscape:transform-center-y="12.14731" />
    <g
       sodipodi:type="inkscape:box3d"
       id="g52"
       style="fill:#008080"
       inkscape:perspectiveID="#perspective36"
       inkscape:corner0="-0.64201639 : 0.071268816 : 0 : 1"
       inkscape:corner7="-0.70880998 : 0.017678824 : 0.25 : 1">
      <path
         sodipodi:type="inkscape:box3dside"
         id="path60"
         style="fill:#d7d7ff;fill-rule:evenodd;stroke:none;stroke-linejoin:round"
         inkscape:box3dsidetype="14"
         d="M 360.58929,73.741895 V 257.77976 l -69.56396,-50.48123 v -99.0225 z"
         points="360.58929,257.77976 291.02533,207.29853 291.02533,108.27603 360.58929,73.741895 " />
      <path
         sodipodi:type="inkscape:box3dside"
         id="path62"
         style="fill:#afafde;fill-rule:evenodd;stroke:none;stroke-linejoin:round"
         inkscape:box3dsidetype="13"
         d="m 293.30952,237.39004 67.27977,20.38972 -69.56396,-50.48123 -31.97229,-6.45966 z"
         points="360.58929,257.77976 291.02533,207.29853 259.05304,200.83887 293.30952,237.39004 " />
      <path
         sodipodi:type="inkscape:box3dside"
         id="path64"
         style="fill:#e9e9ff;fill-rule:evenodd;stroke:none;stroke-linejoin:round"
         inkscape:box3dsidetype="11"
         d="m 259.05304,112.69507 31.97229,-4.41904 v 99.0225 l -31.97229,-6.45966 z"
         points="291.02533,108.27603 291.02533,207.29853 259.05304,200.83887 259.05304,112.69507 " />
      <path
         sodipodi:type="inkscape:box3dside"
         id="path56"
         style="fill:#4d4d9f;fill-rule:evenodd;stroke:none;stroke-linejoin:round"
         inkscape:box3dsidetype="5"
         d="m 293.30952,87.690473 67.27977,-13.948578 -69.56396,34.534135 -31.97229,4.41904 z"
         points="360.58929,73.741895 291.02533,108.27603 259.05304,112.69507 293.30952,87.690473 " />
      <path
         sodipodi:type="inkscape:box3dside"
         id="path54"
         style="fill:#353564;fill-rule:evenodd;stroke:none;stroke-linejoin:round"
         inkscape:box3dsidetype="6"
         d="M 293.30952,87.690473 V 237.39004 l -34.25648,-36.55117 v -88.1438 z"
         points="293.30952,237.39004 259.05304,200.83887 259.05304,112.69507 293.30952,87.690473 " />
      <path
         sodipodi:type="inkscape:box3dside"
         id="path58"
         style="fill:#8686bf;fill-rule:evenodd;stroke:none;stroke-linejoin:round"
         inkscape:box3dsidetype="3"
         d="M 293.30952,87.690473 360.58929,73.741895 V 257.77976 l -67.27977,-20.38972 z"
         points="360.58929,73.741895 360.58929,257.77976 293.30952,237.39004 293.30952,87.690473 " />
    </g>
  </g>
</svg>
